# xmcd
#
# Track frame offsets:
#	150
#	19795
#	44487
#	68952
#	90352
#	115207
#	136740
#	164962
#	183520
#	203552
#	220602
#	250775
#
# Disc length: 3641 seconds
#
# Revision: 0
# Processed by: cddbd v1.5.1PL0 Copyright (c) Steve Scherf et al.
# Submitted via: EasyCDDAExtractor 8.1.4.1
#
DISCID=a50e370c
DTITLE=Various Artist - Tinh Nong Chay
DYEAR=1900
DGENRE=
TTITLE0=Huong Lan - Canh hoa thoi loan
TTITLE1=Huong Lan - Mai tro lai Hue
TTITLE2=Huong Lan - Tuong nhu con nguoi yeu
TTITLE3=Huong Lan - Tuan Vu - Hoa hoc tro
TTITLE4=Huong Lan - Cho tinh cu
TTITLE5=Huong Lan - Dau tinh sau
TTITLE6=Huong Lan - Cho dong
TTITLE7=Huong Lan - Loi gia biet
TTITLE8=Huong Lan - Giot nuoc mat nga
TTITLE9=Huong Lan - Tinh nong chay
TTITLE10=Huong Lan - Cay dang bo moi
TTITLE11=Huong Lan - Chuyen do khong em
EXTD=
EXTT0=
EXTT1=
EXTT2=
EXTT3=
EXTT4=
EXTT5=
EXTT6=
EXTT7=
EXTT8=
EXTT9=
EXTT10=
EXTT11=
PLAYORDER=
